<svg width="160" height="140" viewBox="0 0 160 140" fill="none" xmlns="http://www.w3.org/2000/svg">
<path d="M125.224 3.62264C128.789 6.87421 129.43 11.9757 129.43 11.9757C129.43 11.9757 124.291 11.8062 120.726 8.55467C117.16 5.30309 116.52 0.201599 116.52 0.201599C116.52 0.201599 121.659 0.371066 125.224 3.62264Z" fill="#FFD028"/>
<path d="M100.157 123.43C97.0875 127.367 96.9028 132.017 96.9443 132.031C96.9323 132.09 103.384 130.286 106.279 125.944C109.175 121.656 107.765 117.212 107.807 117.224C107.79 117.267 103.221 119.529 100.157 123.43Z" fill="#FFD028"/>
<path d="M104.674 137.065C99.012 136.104 96.8997 131.821 96.9007 131.86C96.9674 131.88 103.035 130.129 108.264 130.744C113.545 131.387 116.646 134.666 116.646 134.701C116.721 134.718 110.399 138.049 104.674 137.065Z" fill="#FFD028"/>
<path d="M111.35 118.511C109.241 122.829 109.999 127.343 110.037 127.352C110.032 127.412 115.703 124.597 117.613 119.91C119.528 115.276 117.348 111.213 117.389 111.22C117.379 111.263 113.46 114.231 111.35 118.511Z" fill="#FFD028"/>
<path d="M118.266 130.921C112.761 130.938 109.96 127.156 109.964 127.193C110.026 127.203 115.344 124.502 120.419 124.214C125.544 123.944 129.134 126.589 129.14 126.623C129.211 126.627 123.828 130.916 118.266 130.921Z" fill="#FFD028"/>
<path d="M121.014 111.859C119.817 116.399 121.411 120.633 121.447 120.634C121.449 120.694 126.306 117.011 127.277 112.14C128.26 107.322 125.421 103.754 125.459 103.754C125.456 103.799 122.217 107.356 121.014 111.859Z" fill="#FFD028"/>
<path d="M129.968 122.69C124.713 123.642 121.339 120.457 121.348 120.493C121.405 120.493 125.945 116.979 130.775 115.829C135.653 114.689 139.611 116.633 139.619 116.667C139.684 116.66 135.278 121.742 129.968 122.69Z" fill="#FFD028"/>
<path d="M129.081 103.748C128.746 108.362 131.067 112.189 131.101 112.185C131.11 112.243 135.12 107.836 135.202 102.932C135.301 98.0779 131.919 95.0996 131.954 95.0931C131.958 95.139 129.426 99.169 129.081 103.748Z" fill="#FFD028"/>
<path d="M139.704 112.71C134.795 114.54 130.967 112.032 130.979 112.066C131.03 112.057 134.764 107.868 139.255 105.908C143.791 103.951 147.991 105.148 148.003 105.18C148.063 105.164 144.666 110.874 139.704 112.71Z" fill="#FFD028"/>
<path d="M135.482 94.4513C135.958 99.0028 138.896 102.318 138.927 102.309C138.944 102.365 142.073 97.3781 141.317 92.5784C140.584 87.8246 136.776 85.5122 136.807 85.5002C136.817 85.5439 135.023 89.9315 135.482 94.4513Z" fill="#FFD028"/>
<path d="M147.396 101.314C142.93 103.956 138.77 102.182 138.786 102.214C138.833 102.196 141.73 97.47 145.786 94.7651C149.883 92.0569 154.198 92.48 154.214 92.5095C154.269 92.4844 151.913 98.6584 147.396 101.314Z" fill="#FFD028"/>
<path d="M140.151 84.2461C141.383 88.6129 144.823 91.3266 144.85 91.3123C144.874 91.3648 147.089 85.943 145.55 81.374C144.037 76.8476 139.922 75.2546 139.951 75.2393C139.969 75.2808 138.939 79.9089 140.151 84.2461Z" fill="#FFD028"/>
<path d="M152.967 88.8403C149.042 92.2143 144.676 91.2161 144.697 91.2445C144.738 91.2204 146.77 86.0927 150.291 82.7198C153.85 79.3371 158.15 78.9795 158.17 79.0058C158.22 78.973 156.94 85.4466 152.967 88.8403Z" fill="#FFD028"/>
<path d="M143.018 73.4079C144.952 77.4773 148.773 79.5207 148.798 79.5021C148.829 79.5502 150.098 73.8376 147.828 69.6151C145.592 65.4298 141.294 64.5945 141.321 64.5748C141.346 64.6142 141.111 69.3647 143.018 73.4079Z" fill="#FFD028"/>
<path d="M156.338 75.6273C153.054 79.641 148.611 79.4387 148.636 79.4638C148.672 79.4332 149.809 74.042 152.697 70.0896C155.619 66.1208 159.767 64.9947 159.791 65.0165C159.837 64.9772 159.666 71.5864 156.338 75.6273Z" fill="#FFD028"/>
<path d="M144.016 62.2165C146.594 65.8879 150.676 67.2119 150.698 67.1901C150.738 67.2327 151.024 61.3747 148.083 57.6016C145.18 53.8613 140.827 53.8001 140.849 53.7771C140.883 53.811 141.47 58.5681 144.016 62.2165Z" fill="#FFD028"/>
<path d="M157.431 62.0132C154.891 66.5647 150.505 67.1595 150.534 67.1803C150.564 67.1453 150.778 61.6272 152.93 57.1949C155.112 52.7417 158.971 50.8754 159.001 50.8951C159.039 50.8492 160.011 57.4288 157.431 62.0132Z" fill="#FFD028"/>
<path d="M143.077 50.9508C146.239 54.1335 150.458 54.7086 150.476 54.6846C150.523 54.7206 149.796 48.8626 146.241 45.6318C142.73 42.4261 138.452 43.139 138.471 43.1127C138.513 43.1412 139.953 47.7846 143.077 50.9508Z" fill="#FFD028"/>
<path d="M156.166 48.3389C154.476 53.3124 150.279 54.6868 150.313 54.7043C150.337 54.6649 149.599 49.1578 150.91 44.3569C152.249 39.5321 155.679 36.9769 155.712 36.9911C155.746 36.9408 157.895 43.327 156.166 48.3389Z" fill="#FFD028"/>
<path d="M140.132 39.8896C143.817 42.5081 148.044 42.3223 148.059 42.2949C148.114 42.3244 146.338 36.6118 142.231 34.002C138.175 31.4108 134.105 32.877 134.121 32.8475C134.17 32.8704 136.49 37.2831 140.132 39.8896Z" fill="#FFD028"/>
<path d="M152.466 34.9455C151.731 40.2143 147.865 42.3321 147.904 42.3441C147.921 42.3026 146.202 36.942 146.567 31.8973C146.955 26.8243 149.812 23.6503 149.85 23.6602C149.878 23.6055 153.236 29.633 152.466 34.9455Z" fill="#FFD028"/>
<path d="M135.113 29.3149C139.258 31.3015 143.361 30.3634 143.373 30.335C143.436 30.3569 140.578 24.9361 135.982 23.0162C131.442 21.1073 127.716 23.2863 127.729 23.2557C127.786 23.271 131.018 27.3338 135.113 29.3149Z" fill="#FFD028"/>
<path d="M146.253 22.1754C146.583 27.6016 143.188 30.4049 143.231 30.4115C143.243 30.3678 140.513 25.2903 139.823 20.1385C139.153 14.954 141.289 11.2497 141.332 11.253C141.352 11.1951 145.953 16.7022 146.253 22.1754Z" fill="#FFD028"/>
<path d="M127.95 19.5087C132.489 20.8098 136.335 19.1468 136.344 19.1173C136.415 19.1293 132.442 14.1492 127.421 12.975C122.463 11.8051 119.221 14.6368 119.231 14.6051C119.297 14.6128 123.468 18.2066 127.95 19.5087Z" fill="#FFD028"/>
<path d="M137.445 10.3718C138.949 15.8045 136.171 19.219 136.219 19.219C136.225 19.1742 132.456 14.5177 130.601 9.40526C128.762 4.25784 130.027 0.129417 130.075 0.128323C130.089 0.0670967 135.967 4.8887 137.445 10.3718Z" fill="#FFD028"/>
<path d="M78.794 133.458L78.8837 132.462C87.134 133.209 95.3591 132.289 103.331 129.731C111.097 127.237 118.287 123.3 124.702 118.029C138.014 107.09 146.599 91.4807 148.876 74.0748C150.74 59.8221 149.783 47.1209 146.033 36.3242C142.006 24.7305 134.835 15.658 124.718 9.36045L125.248 8.51202C135.563 14.9343 142.874 24.1817 146.979 35.9973C150.78 46.9427 151.752 59.797 149.868 74.206C147.559 91.8644 138.846 107.704 125.337 118.804C118.824 124.156 111.523 128.153 103.637 130.687C95.5373 133.284 87.1788 134.218 78.794 133.458Z" fill="#FFD028"/>
<path d="M35.0618 3.62264C31.4975 6.87421 30.8558 11.9757 30.8558 11.9757C30.8558 11.9757 35.9944 11.8062 39.5598 8.55467C43.1241 5.30309 43.7658 0.201599 43.7658 0.201599C43.7658 0.201599 38.6261 0.371066 35.0618 3.62264Z" fill="#FFD028"/>
<path d="M60.1298 123.43C63.1987 127.367 63.3835 132.017 63.342 132.031C63.354 132.09 56.9022 130.286 54.0071 125.944C51.1109 121.656 52.5213 117.212 52.4797 117.224C52.4961 117.267 57.0652 119.529 60.1298 123.43Z" fill="#FFD028"/>
<path d="M55.611 137.065C61.2734 136.104 63.3857 131.821 63.3846 131.86C63.3179 131.88 57.2499 130.129 52.0216 130.744C46.7408 131.387 43.639 134.666 43.639 134.701C43.5647 134.718 49.8863 138.049 55.611 137.065Z" fill="#FFD028"/>
<path d="M48.9351 118.511C51.0442 122.829 50.2865 127.343 50.2482 127.352C50.2537 127.412 44.5826 124.597 42.6725 119.91C40.757 115.276 42.9371 111.213 42.8966 111.22C42.9065 111.263 46.825 114.231 48.9351 118.511Z" fill="#FFD028"/>
<path d="M42.0198 130.921C47.5247 130.938 50.3259 127.156 50.3215 127.193C50.2592 127.203 44.9412 124.502 39.8659 124.214C34.7415 123.944 31.1499 126.589 31.1455 126.623C31.0755 126.627 36.4569 130.916 42.0198 130.921Z" fill="#FFD028"/>
<path d="M39.2712 111.859C40.4684 116.399 38.8743 120.633 38.8382 120.635C38.836 120.694 33.9794 117.011 33.0085 112.14C32.0256 107.322 34.8639 103.754 34.8268 103.754C34.8289 103.799 38.0685 107.356 39.2712 111.859Z" fill="#FFD028"/>
<path d="M30.3178 122.69C35.5724 123.642 38.9464 120.457 38.9377 120.493C38.8808 120.493 34.3402 116.979 29.5099 115.829C24.6325 114.689 20.6746 116.633 20.6659 116.667C20.6014 116.66 25.0075 121.742 30.3178 122.69Z" fill="#FFD028"/>
<path d="M31.2045 103.748C31.5391 108.362 29.2179 112.189 29.1841 112.185C29.1753 112.243 25.165 107.836 25.083 102.932C24.9846 98.0779 28.3662 95.0996 28.3313 95.0931C28.3269 95.139 30.859 99.169 31.2045 103.748Z" fill="#FFD028"/>
<path d="M20.5817 112.71C25.4908 114.54 29.3185 112.032 29.3065 112.066C29.2551 112.057 25.5214 107.868 21.03 105.908C16.4948 103.951 12.2942 105.148 12.2822 105.18C12.2221 105.164 15.6202 110.874 20.5817 112.71Z" fill="#FFD028"/>
<path d="M24.8031 94.4513C24.3275 99.0028 21.3897 102.318 21.358 102.309C21.3416 102.365 18.2125 97.3781 18.9679 92.5784C19.7016 87.8246 23.5097 85.5122 23.478 85.5002C23.4681 85.5439 25.2634 89.9315 24.8031 94.4513Z" fill="#FFD028"/>
<path d="M12.889 101.314C17.3553 103.956 21.5154 102.182 21.499 102.214C21.452 102.196 18.5558 97.47 14.5006 94.7651C10.4039 92.0569 6.08848 92.48 6.07208 92.5095C6.01632 92.4844 8.37245 98.6584 12.889 101.314Z" fill="#FFD028"/>
<path d="M20.1345 84.2461C18.9024 88.6129 15.4627 91.3266 15.4354 91.3123C15.4113 91.3648 13.1962 85.943 14.7357 81.374C16.2488 76.8476 20.3631 75.2546 20.3346 75.2393C20.316 75.2808 21.346 79.9089 20.1345 84.2461Z" fill="#FFD028"/>
<path d="M7.31849 88.8403C11.2436 92.2143 15.6092 91.2161 15.5885 91.2445C15.5469 91.2204 13.5155 86.0927 9.99387 82.7198C6.43507 79.3371 2.13499 78.9795 2.11531 79.0058C2.06502 78.973 3.34531 85.4466 7.31849 88.8403Z" fill="#FFD028"/>
<path d="M17.2678 73.4079C15.3337 77.4773 11.5125 79.5207 11.4874 79.5021C11.4568 79.5502 10.1874 73.8376 12.4572 69.6151C14.693 65.4298 18.9909 64.5945 18.9647 64.5748C18.9395 64.6142 19.1746 69.3647 17.2678 73.4079Z" fill="#FFD028"/>
<path d="M3.94774 75.6273C7.23102 79.641 11.6743 79.4387 11.6492 79.4638C11.6131 79.4332 10.476 74.042 7.58854 70.0896C4.66715 66.1208 0.517951 64.9947 0.493897 65.0165C0.447977 64.9772 0.619631 71.5864 3.94774 75.6273Z" fill="#FFD028"/>
<path d="M16.2696 62.2165C13.6915 65.8879 9.61012 67.2119 9.58716 67.1901C9.5478 67.2327 9.26134 61.3747 12.2024 57.6016C15.1052 53.8613 19.4589 53.8001 19.4359 53.7771C19.402 53.811 18.8149 58.5681 16.2696 62.2165Z" fill="#FFD028"/>
<path d="M2.8555 62.0132C5.39531 66.5647 9.78177 67.1595 9.75225 67.1803C9.72273 67.1453 9.50843 61.6272 7.35675 57.1949C5.17446 52.7417 1.31499 50.8754 1.28547 50.8951C1.24611 50.8492 0.27523 57.4288 2.8555 62.0132Z" fill="#FFD028"/>
<path d="M17.2088 50.9508C14.0469 54.1335 9.82769 54.7086 9.80911 54.6846C9.7621 54.7206 10.4892 48.8626 14.0447 45.6318C17.5543 42.4261 21.8336 43.139 21.8139 43.1127C21.7724 43.1412 20.3324 47.7846 17.2088 50.9508Z" fill="#FFD028"/>
<path d="M4.1194 48.3389C5.80969 53.3124 10.0059 54.6868 9.97201 54.7043C9.94796 54.6649 10.686 49.1578 9.37505 44.3569C8.03681 39.5321 4.60593 36.9769 4.57313 36.9911C4.53924 36.9408 2.39084 43.327 4.1194 48.3389Z" fill="#FFD028"/>
<path d="M20.1531 39.8896C16.4686 42.5081 12.2418 42.3223 12.2265 42.2949C12.1718 42.3244 13.9474 36.6118 18.0539 34.002C22.1102 31.4108 26.1807 32.877 26.1643 32.8475C26.1162 32.8704 23.795 37.2831 20.1531 39.8896Z" fill="#FFD028"/>
<path d="M7.81923 34.9455C8.55395 40.2143 12.42 42.3321 12.3817 42.3441C12.3642 42.3026 14.0829 36.942 13.7189 31.8973C13.3307 26.8243 10.4738 23.6503 10.4356 23.6602C10.4082 23.6055 7.05061 29.633 7.81923 34.9455Z" fill="#FFD028"/>
<path d="M25.1726 29.3149C21.0278 31.3015 16.9245 30.3634 16.9125 30.335C16.8491 30.3569 19.707 24.9361 24.3034 23.0162C28.8429 21.1073 32.569 23.2863 32.5559 23.2557C32.499 23.271 29.2671 27.3338 25.1726 29.3149Z" fill="#FFD028"/>
<path d="M14.0337 22.1754C13.7046 27.6016 17.0983 30.4049 17.0557 30.4115C17.0437 30.3678 19.7737 25.2903 20.4636 20.1385C21.1338 14.954 18.9975 11.2497 18.9548 11.253C18.933 11.1951 14.3322 16.7022 14.0337 22.1754Z" fill="#FFD028"/>
<path d="M32.335 19.5087C27.7966 20.8098 23.9503 19.1468 23.9415 19.1173C23.8705 19.1293 27.8436 14.1492 32.8642 12.975C37.8225 11.8051 41.0631 14.6368 41.0544 14.6051C40.9888 14.6128 36.8188 18.2066 32.335 19.5087Z" fill="#FFD028"/>
<path d="M22.8405 10.3718C21.3361 15.8045 24.1143 19.219 24.0662 19.219C24.0607 19.1742 27.8294 14.5177 29.6848 9.40526C31.5238 4.25784 30.2588 0.129417 30.2118 0.128323C30.1965 0.0670967 24.3187 4.8887 22.8405 10.3718Z" fill="#FFD028"/>
<path d="M81.4913 133.458L81.4017 132.462C73.1514 133.209 64.9262 132.289 56.9547 129.731C49.1888 127.237 41.9979 123.3 35.5833 118.029C22.2709 107.09 13.6861 91.4807 11.4097 74.0748C9.5456 59.8221 10.5023 47.1209 14.2524 36.3242C18.2791 24.7305 25.4503 15.658 35.5669 9.36045L35.0378 8.51202C24.7222 14.9321 17.411 24.1795 13.3067 35.9951C9.50515 46.9405 8.53317 59.7948 10.417 74.2038C12.7261 91.8623 21.4389 107.701 34.9481 118.802C41.4611 124.154 48.7624 128.151 56.6486 130.684C64.748 133.284 73.1065 134.218 81.4913 133.458Z" fill="#FFD028"/>
<path d="M79.8458 128.365L72.2898 133.922L79.8458 139.478L87.403 133.922L79.8458 128.365Z" fill="#FFD028"/>
<path d="M91.4351 97.3091H68.5646C66.5718 97.3091 64.8845 98.87 64.8845 100.864V101.91H95.1158V100.864C95.1158 98.87 93.4279 97.3091 91.4351 97.3091Z" fill="#FFD028"/>
<path d="M86.1775 89.9156H73.8222C71.8294 89.9156 70.1421 91.4765 70.1421 93.4706V94.6804H89.8582V93.4706C89.8582 91.4765 88.1703 89.9156 86.1775 89.9156Z" fill="#FFD028"/>
<path d="M118.901 77.6713L109.328 57.1652L113.992 58.504C114.689 58.701 115.415 58.298 115.614 57.6016C115.814 56.9059 115.413 56.1794 114.718 55.9772L86.8469 47.9798C86.863 47.7821 86.8745 47.5838 86.8745 47.3822C86.8751 44.2047 84.6975 41.4411 81.6085 40.6985C78.5189 39.9553 75.3228 41.4276 73.8793 44.2586L46.0079 36.2611C45.3141 36.0718 44.5972 36.4755 44.3989 37.1667C44.2012 37.8579 44.5947 38.58 45.2833 38.7879L51.1025 40.4579L41.0076 62.0814C40.4172 62.2232 40.0006 62.7508 40 63.3579C39.9981 68.5591 43.1333 73.2481 47.9404 75.2338C52.7474 77.2195 58.2778 76.1105 61.9476 72.4246C64.3923 70.041 65.774 66.7729 65.7805 63.3579C65.7798 62.7161 65.3152 62.168 64.6817 62.0628L55.1349 41.615L73.1535 46.7847C73.1368 46.9824 73.1259 47.1807 73.1259 47.3822C73.1304 50.6702 75.4588 53.496 78.6858 54.1288V88.4369H81.3146V54.1288C83.387 53.7213 85.1577 52.3857 86.1204 50.5059L105.342 56.0215L95.2269 77.69C94.6364 77.8318 94.2199 78.3594 94.2193 78.9665C94.2173 84.1676 97.3525 88.8566 102.16 90.8424C106.967 92.8281 112.497 91.7191 116.167 88.0332C118.612 85.6496 119.993 82.3815 120 78.9665C119.999 78.3247 119.534 77.7766 118.901 77.6713ZM61.7718 61.9845H43.9259L52.8488 42.873L61.7718 61.9845ZM98.1452 77.593L107.068 58.4815L115.991 77.593H98.1452Z" fill="#FFD028"/>
</svg>
